<svg
  xmlns="http://www.w3.org/2000/svg"
  xmlns:xlink="http://www.w3.org/1999/xlink"
  width="751.66"
  height="194.6"
  viewBox="0.00 0.00 751.66 194.60"
  preserveAspectRatio="xMidYMid meet"
  id="graph-diagram"
>
  <defs>
    <defs>
      <style type="text/css">
@import url('https://fonts.googleapis.com/css?family=Roboto+Condensed:400,700');
      </style>
    </defs>
  </defs>
  <g
    id="graph0"
    class="graph"
    transform="scale(1 1) rotate(0) translate(4 190.6)"
  >
    <text
      text-anchor="middle"
      x="371.83"
      y="-168.2"
      font-family="Roboto Condensed, sans-serif"
      font-size="16.00"
    >
      mini-shiki
    </text>
    <!-- mini&#45;shiki@3.6.0 -->
    <g
      id="node1"
      class="node"
      data-module="mini-shiki@3.6.0"
    >
      <title>mini-shiki@3.6.0</title>
      <g id="a_node1">
        <a
          xlink:href="https://npmgraph.js.org/?q=mini-shiki%403.6.0"
          xlink:title="mini-shiki@3.6.0"
        >
          <path
            fill="none"
            stroke="black"
            d="M76.79,-92.96C76.79,-92.96 6.32,-92.96 6.32,-92.96 3.16,-92.96 0,-89.8 0,-86.64 0,-86.64 0,-80.32 0,-80.32 0,-77.16 3.16,-74 6.32,-74 6.32,-74 76.79,-74 76.79,-74 79.95,-74 83.11,-77.16 83.11,-80.32 83.11,-80.32 83.11,-86.64 83.11,-86.64 83.11,-89.8 79.95,-92.96 76.79,-92.96"
          />
          <text
            text-anchor="middle"
            x="41.56"
            y="-80.18"
            font-family="Roboto Condensed, sans-serif"
            font-size="11.00"
          >
            mini-shiki@3.6.0
          </text>
        </a>
      </g>
    </g>
    <!-- @shikijs/engine&#45;oniguruma@3.6.0 -->
    <g
      id="node2"
      class="node"
      data-module="@shikijs/engine-oniguruma@3.6.0"
    >
      <title>@shikijs/engine-oniguruma@3.6.0</title>
      <g id="a_node2">
        <a
          xlink:href="https://npmgraph.js.org/?q=%40shikijs%2Fengine-oniguruma%403.6.0"
          xlink:title="@shikijs/engine-oniguruma@3.6.0"
        >
          <path
            fill="none"
            stroke="black"
            d="M273.24,-129.96C273.24,-129.96 125.43,-129.96 125.43,-129.96 122.27,-129.96 119.11,-126.8 119.11,-123.64 119.11,-123.64 119.11,-117.32 119.11,-117.32 119.11,-114.16 122.27,-111 125.43,-111 125.43,-111 273.24,-111 273.24,-111 276.4,-111 279.56,-114.16 279.56,-117.32 279.56,-117.32 279.56,-123.64 279.56,-123.64 279.56,-126.8 276.4,-129.96 273.24,-129.96"
          />
          <text
            text-anchor="middle"
            x="199.34"
            y="-117.18"
            font-family="Roboto Condensed, sans-serif"
            font-size="11.00"
          >
            @shikijs/engine-oniguruma@3.6.0
          </text>
        </a>
      </g>
    </g>
    <!-- mini&#45;shiki@3.6.0&#45;&gt;@shikijs/engine&#45;oniguruma@3.6.0 -->
    <g
      id="edge3"
      class="edge"
    >
      <title>
        mini-shiki@3.6.0- &gt; @shikijs/engine-oniguruma@3.6.0
      </title>
      <path
        fill="none"
        stroke="black"
        d="M83.49,-93.2C102.43,-97.7 125.16,-103.1 145.39,-107.9"
      />
      <polygon
        fill="black"
        stroke="black"
        points="144.32,-111.25 154.85,-110.15 145.93,-104.44 144.32,-111.25"
      />
    </g>
    <!-- @shikijs/langs@3.6.0 -->
    <g
      id="node3"
      class="node"
      data-module="@shikijs/langs@3.6.0"
    >
      <title>@shikijs/langs@3.6.0</title>
      <g id="a_node3">
        <a
          xlink:href="https://npmgraph.js.org/?q=%40shikijs%2Flangs%403.6.0"
          xlink:title="@shikijs/langs@3.6.0"
        >
          <path
            fill="none"
            stroke="black"
            d="M244.53,-55.96C244.53,-55.96 154.15,-55.96 154.15,-55.96 150.99,-55.96 147.83,-52.8 147.83,-49.64 147.83,-49.64 147.83,-43.32 147.83,-43.32 147.83,-40.16 150.99,-37 154.15,-37 154.15,-37 244.53,-37 244.53,-37 247.69,-37 250.85,-40.16 250.85,-43.32 250.85,-43.32 250.85,-49.64 250.85,-49.64 250.85,-52.8 247.69,-55.96 244.53,-55.96"
          />
          <text
            text-anchor="middle"
            x="199.34"
            y="-43.18"
            font-family="Roboto Condensed, sans-serif"
            font-size="11.00"
          >
            @shikijs/langs@3.6.0
          </text>
        </a>
      </g>
    </g>
    <!-- mini&#45;shiki@3.6.0&#45;&gt;@shikijs/langs@3.6.0 -->
    <g
      id="edge4"
      class="edge"
    >
      <title>
        mini-shiki@3.6.0- &gt; @shikijs/langs@3.6.0
      </title>
      <path
        fill="none"
        stroke="black"
        d="M83.49,-73.76C102.43,-69.26 125.16,-63.86 145.39,-59.06"
      />
      <polygon
        fill="black"
        stroke="black"
        points="145.93,-62.52 154.85,-56.81 144.32,-55.71 145.93,-62.52"
      />
    </g>
    <!-- @shikijs/themes@3.6.0 -->
    <g
      id="node4"
      class="node"
      data-module="@shikijs/themes@3.6.0"
    >
      <title>@shikijs/themes@3.6.0</title>
      <g id="a_node4">
        <a
          xlink:href="https://npmgraph.js.org/?q=%40shikijs%2Fthemes%403.6.0"
          xlink:title="@shikijs/themes@3.6.0"
        >
          <path
            fill="none"
            stroke="black"
            d="M248.5,-18.96C248.5,-18.96 150.18,-18.96 150.18,-18.96 147.02,-18.96 143.86,-15.8 143.86,-12.64 143.86,-12.64 143.86,-6.32 143.86,-6.32 143.86,-3.16 147.02,0 150.18,0 150.18,0 248.5,0 248.5,0 251.66,0 254.82,-3.16 254.82,-6.32 254.82,-6.32 254.82,-12.64 254.82,-12.64 254.82,-15.8 251.66,-18.96 248.5,-18.96"
          />
          <text
            text-anchor="middle"
            x="199.34"
            y="-6.18"
            font-family="Roboto Condensed, sans-serif"
            font-size="11.00"
          >
            @shikijs/themes@3.6.0
          </text>
        </a>
      </g>
    </g>
    <!-- mini&#45;shiki@3.6.0&#45;&gt;@shikijs/themes@3.6.0 -->
    <g
      id="edge5"
      class="edge"
    >
      <title>
        mini-shiki@3.6.0- &gt; @shikijs/themes@3.6.0
      </title>
      <path
        fill="none"
        stroke="black"
        d="M53.12,-73.81C67.16,-61.48 93.22,-40.33 119.11,-28.48 123.72,-26.37 128.6,-24.48 133.57,-22.79"
      />
      <polygon
        fill="black"
        stroke="black"
        points="134.58,-26.14 143.1,-19.84 132.51,-19.45 134.58,-26.14"
      />
    </g>
    <!-- @shikijs/vscode&#45;textmate@10.0.2 -->
    <g
      id="node5"
      class="node"
      data-module="@shikijs/vscode-textmate@10.0.2"
    >
      <title>@shikijs/vscode-textmate@10.0.2</title>
      <g id="a_node5">
        <a
          xlink:href="https://npmgraph.js.org/?q=%40shikijs%2Fvscode-textmate%4010.0.2"
          xlink:title="@shikijs/vscode-textmate@10.0.2"
        >
          <path
            fill="none"
            stroke="black"
            d="M605.65,-128.96C605.65,-128.96 460.91,-128.96 460.91,-128.96 457.75,-128.96 454.59,-125.8 454.59,-122.64 454.59,-122.64 454.59,-116.32 454.59,-116.32 454.59,-113.16 457.75,-110 460.91,-110 460.91,-110 605.65,-110 605.65,-110 608.81,-110 611.97,-113.16 611.97,-116.32 611.97,-116.32 611.97,-122.64 611.97,-122.64 611.97,-125.8 608.81,-128.96 605.65,-128.96"
          />
          <text
            text-anchor="middle"
            x="533.28"
            y="-116.18"
            font-family="Roboto Condensed, sans-serif"
            font-size="11.00"
          >
            @shikijs/vscode-textmate@10.0.2
          </text>
        </a>
      </g>
    </g>
    <!-- mini&#45;shiki@3.6.0&#45;&gt;@shikijs/vscode&#45;textmate@10.0.2 -->
    <g
      id="edge1"
      class="edge"
    >
      <title>
        mini-shiki@3.6.0- &gt; @shikijs/vscode-textmate@10.0.2
      </title>
      <path
        fill="none"
        stroke="black"
        d="M51.83,-93.2C65.2,-106.45 91.39,-129.55 119.11,-138.48 246.31,-179.43 406.92,-150.81 485.14,-132.12"
      />
      <polygon
        fill="black"
        stroke="black"
        points="485.72,-135.58 494.6,-129.8 484.05,-128.78 485.72,-135.58"
      />
    </g>
    <!-- @shikijs/types@3.6.0 -->
    <g
      id="node6"
      class="node"
      data-module="@shikijs/types@3.6.0"
    >
      <title>@shikijs/types@3.6.0</title>
      <g id="a_node6">
        <a
          xlink:href="https://npmgraph.js.org/?q=%40shikijs%2Ftypes%403.6.0"
          xlink:title="@shikijs/types@3.6.0"
        >
          <path
            fill="none"
            stroke="black"
            d="M412.27,-91.96C412.27,-91.96 321.88,-91.96 321.88,-91.96 318.72,-91.96 315.56,-88.8 315.56,-85.64 315.56,-85.64 315.56,-79.32 315.56,-79.32 315.56,-76.16 318.72,-73 321.88,-73 321.88,-73 412.27,-73 412.27,-73 415.43,-73 418.59,-76.16 418.59,-79.32 418.59,-79.32 418.59,-85.64 418.59,-85.64 418.59,-88.8 415.43,-91.96 412.27,-91.96"
          />
          <text
            text-anchor="middle"
            x="367.07"
            y="-79.18"
            font-family="Roboto Condensed, sans-serif"
            font-size="11.00"
          >
            @shikijs/types@3.6.0
          </text>
        </a>
      </g>
    </g>
    <!-- mini&#45;shiki@3.6.0&#45;&gt;@shikijs/types@3.6.0 -->
    <g
      id="edge2"
      class="edge"
    >
      <title>
        mini-shiki@3.6.0- &gt; @shikijs/types@3.6.0
      </title>
      <path
        fill="none"
        stroke="black"
        d="M83.53,-83.35C139.19,-83.18 239.17,-82.87 304.05,-82.67"
      />
      <polygon
        fill="black"
        stroke="black"
        points="303.84,-86.17 313.83,-82.64 303.81,-79.17 303.84,-86.17"
      />
    </g>
    <!-- @shikijs/engine&#45;oniguruma@3.6.0&#45;&gt;@shikijs/vscode&#45;textmate@10.0.2 -->
    <g
      id="edge6"
      class="edge"
    >
      <title>
        @shikijs/engine-oniguruma@3.6.0- &gt; @shikijs/vscode-textmate@10.0.2
      </title>
      <path
        fill="none"
        stroke="black"
        d="M279.85,-120.24C328.97,-120.09 392.12,-119.9 442.97,-119.75"
      />
      <polygon
        fill="black"
        stroke="black"
        points="442.78,-123.25 452.77,-119.72 442.76,-116.25 442.78,-123.25"
      />
    </g>
    <!-- @shikijs/engine&#45;oniguruma@3.6.0&#45;&gt;@shikijs/types@3.6.0 -->
    <g
      id="edge7"
      class="edge"
    >
      <title>
        @shikijs/engine-oniguruma@3.6.0- &gt; @shikijs/types@3.6.0
      </title>
      <path
        fill="none"
        stroke="black"
        d="M243.45,-110.6C264.29,-105.82 289.53,-100.03 311.68,-94.95"
      />
      <polygon
        fill="black"
        stroke="black"
        points="312.16,-98.43 321.13,-92.79 310.6,-91.61 312.16,-98.43"
      />
    </g>
    <!-- @shikijs/langs@3.6.0&#45;&gt;@shikijs/types@3.6.0 -->
    <g
      id="edge8"
      class="edge"
    >
      <title>
        @shikijs/langs@3.6.0- &gt; @shikijs/types@3.6.0
      </title>
      <path
        fill="none"
        stroke="black"
        d="M246.07,-56.41C265.55,-60.64 288.49,-65.63 309.06,-70.1"
      />
      <polygon
        fill="black"
        stroke="black"
        points="308.22,-73.49 318.73,-72.2 309.7,-66.65 308.22,-73.49"
      />
    </g>
    <!-- @shikijs/themes@3.6.0&#45;&gt;@shikijs/types@3.6.0 -->
    <g
      id="edge9"
      class="edge"
    >
      <title>
        @shikijs/themes@3.6.0- &gt; @shikijs/types@3.6.0
      </title>
      <path
        fill="none"
        stroke="black"
        d="M252.25,-19.38C261.52,-21.86 270.95,-24.87 279.56,-28.48 303.04,-38.32 327.44,-54.14 344.31,-66.12"
      />
      <polygon
        fill="black"
        stroke="black"
        points="341.94,-68.72 352.09,-71.76 346.06,-63.06 341.94,-68.72"
      />
    </g>
    <!-- @shikijs/types@3.6.0&#45;&gt;@shikijs/vscode&#45;textmate@10.0.2 -->
    <g
      id="edge10"
      class="edge"
    >
      <title>
        @shikijs/types@3.6.0- &gt; @shikijs/vscode-textmate@10.0.2
      </title>
      <path
        fill="none"
        stroke="black"
        d="M412.08,-92.4C432.05,-96.9 455.88,-102.27 477.04,-107.03"
      />
      <polygon
        fill="black"
        stroke="black"
        points="476.15,-110.42 486.68,-109.2 477.69,-103.59 476.15,-110.42"
      />
    </g>
    <!-- @types/hast@3.0.4 -->
    <g
      id="node7"
      class="node"
      data-module="@types/hast@3.0.4"
    >
      <title>@types/hast@3.0.4</title>
      <g id="a_node7">
        <a
          xlink:href="https://npmgraph.js.org/?q=%40types%2Fhast%403.0.4"
          xlink:title="@types/hast@3.0.4"
        >
          <path
            fill="none"
            stroke="black"
            d="M572.97,-91.96C572.97,-91.96 493.59,-91.96 493.59,-91.96 490.43,-91.96 487.27,-88.8 487.27,-85.64 487.27,-85.64 487.27,-79.32 487.27,-79.32 487.27,-76.16 490.43,-73 493.59,-73 493.59,-73 572.97,-73 572.97,-73 576.13,-73 579.29,-76.16 579.29,-79.32 579.29,-79.32 579.29,-85.64 579.29,-85.64 579.29,-88.8 576.13,-91.96 572.97,-91.96"
          />
          <text
            text-anchor="middle"
            x="533.28"
            y="-79.18"
            font-family="Roboto Condensed, sans-serif"
            font-size="11.00"
          >
            @types/hast@3.0.4
          </text>
        </a>
      </g>
    </g>
    <!-- @shikijs/types@3.6.0&#45;&gt;@types/hast@3.0.4 -->
    <g
      id="edge11"
      class="edge"
    >
      <title>
        @shikijs/types@3.6.0- &gt; @types/hast@3.0.4
      </title>
      <path
        fill="none"
        stroke="black"
        d="M418.68,-82.48C436.62,-82.48 456.93,-82.48 475.36,-82.48"
      />
      <polygon
        fill="black"
        stroke="black"
        points="475.34,-85.98 485.34,-82.48 475.34,-78.98 475.34,-85.98"
      />
    </g>
    <!-- @types/unist@3.0.3 -->
    <g
      id="node8"
      class="node"
      data-module="@types/unist@3.0.3"
    >
      <title>@types/unist@3.0.3</title>
      <g id="a_node8">
        <a
          xlink:href="https://npmgraph.js.org/?q=%40types%2Funist%403.0.3"
          xlink:title="@types/unist@3.0.3"
        >
          <path
            fill="none"
            stroke="black"
            d="M737.34,-91.96C737.34,-91.96 654.29,-91.96 654.29,-91.96 651.13,-91.96 647.97,-88.8 647.97,-85.64 647.97,-85.64 647.97,-79.32 647.97,-79.32 647.97,-76.16 651.13,-73 654.29,-73 654.29,-73 737.34,-73 737.34,-73 740.5,-73 743.66,-76.16 743.66,-79.32 743.66,-79.32 743.66,-85.64 743.66,-85.64 743.66,-88.8 740.5,-91.96 737.34,-91.96"
          />
          <text
            text-anchor="middle"
            x="695.82"
            y="-79.18"
            font-family="Roboto Condensed, sans-serif"
            font-size="11.00"
          >
            @types/unist@3.0.3
          </text>
        </a>
      </g>
    </g>
    <!-- @types/hast@3.0.4&#45;&gt;@types/unist@3.0.3 -->
    <g
      id="edge12"
      class="edge"
    >
      <title>
        @types/hast@3.0.4- &gt; @types/unist@3.0.3
      </title>
      <path
        fill="none"
        stroke="black"
        d="M579.43,-82.48C597.01,-82.48 617.4,-82.48 636.11,-82.48"
      />
      <polygon
        fill="black"
        stroke="black"
        points="635.98,-85.98 645.98,-82.48 635.98,-78.98 635.98,-85.98"
      />
    </g>
  </g>
  <style>
    :root{accent-color:var(--accent);--lightningcss-light:initial;--lightningcss-dark: ;--lightningcss-light:initial;--lightningcss-dark: ;color-scheme:light
    dark;--grey0:#000;--grey10:#1a1a1a;--grey20:#333;--grey30:#4d4d4d;--grey40:#666;--grey50:gray;--grey60:#999;--grey70:#b3b3b3;--grey80:#ccc;--grey90:#e6e6e6;--grey100:#fff;--root-color:white;--rad_sm:5px;--rad_lg:10px;--inspector-size:32em;--tabs-height:24pt;--bg-gradient:linear-gradient(to
    bottom,rgba(255,255,255,.2),transparent
    100%);--text:#020303;--text-dim:#999;--bg-root:#fff;--bg0:#f1f4f4;--bg1:#bbb;--bg2:#ddd;--tabs-bg:#7e7e7d;--tabs-text:#fff;--tabs-border:rgba(203,203,203,.796);--accent:#da6200;--text-on-accent:#fff;--bg0-shadow-color:color-mix(in
    hsl,var(--bg0)90%,black);--stroke-L:40%;--stroke-S:100%;--stroke-blue:hsl(180,var(--stroke-S),var(--stroke-L));--stroke-orange:hsl(30,var(--stroke-S),var(--stroke-L));--stroke-green:hsl(120,var(--stroke-S),var(--stroke-L));--stroke-indigo:hsl(240,var(--stroke-S),var(--stroke-L));--stroke-red:hsl(0,var(--stroke-S),var(--stroke-L));--stroke-violet:hsl(300,var(--stroke-S),var(--stroke-L));--stroke-yellow:hsl(60,var(--stroke-S),var(--stroke-L));--bg-L:70%;--bg-S:100%;--bg-dark-L:50%;--bg-dark-S:60%;--bg-blue:hsl(180,var(--bg-S),var(--bg-L));--bg-green:hsl(120,var(--bg-S),var(--bg-L));--bg-indigo:hsl(240,var(--bg-S),var(--bg-L));--bg-orange:hsl(30,var(--bg-S),var(--bg-L));--bg-red:hsl(0,var(--bg-S),var(--bg-L));--bg-violet:hsl(300,var(--bg-S),var(--bg-L));--bg-yellow:hsl(60,var(--bg-S),var(--bg-L));--bg-darkblue:hsl(180,var(--bg-dark-S),var(--bg-dark-L));--bg-darkgreen:hsl(120,var(--bg-dark-S),var(--bg-dark-L));--bg-darkindigo:hsl(240,var(--bg-dark-S),var(--bg-dark-L));--bg-darkorange:hsl(30,var(--bg-dark-S),var(--bg-dark-L));--bg-darkred:hsl(0,var(--bg-dark-S),var(--bg-dark-L));--bg-darkviolet:hsl(300,var(--bg-dark-S),var(--bg-dark-L));--bg-darkyellow:hsl(60,var(--bg-dark-S),var(--bg-dark-L));--transition-duration:.5s}@media (prefers-color-scheme:dark){:root{--lightningcss-light: ;--lightningcss-dark:initial;--grey100:#000;--grey90:#1a1a1a;--grey80:#333;--grey70:#4d4d4d;--grey60:#666;--grey50:gray;--grey40:#999;--grey30:#b3b3b3;--grey20:#ccc;--grey10:#e6e6e6;--grey0:#fff;--root-color:black;--text:#f3f3f3;--text-dim:#766;--bg-root:#111;--bg0:#262222;--bg1:#696666;--bg2:#333;--stroke-L:60%;--bg-L:30%;--bg-dark-L:40%}}html{background:var(--bg-root);font-family:system-ui,-apple-system,BlinkMacSystemFont,Segoe
    UI,Roboto,Noto Sans,Ubuntu,Cantarell,Helvetica
    Neue,Helvetica,Arial,sans-serif,Apple Color Emoji,Segoe UI
    Emoji;font-size:10pt}body{margin:0}#app{width:100vw;height:100svh;display:-ms-flexbox;display:flex}@media (max-aspect-ratio:2/3),(max-width:700px){html,body,#app{height:auto;min-height:100svh}#app{--inspector-size:auto;-ms-flex-direction:column;flex-direction:column}}p{line-height:1.5em}h2{border-radius:var(--rad_sm);font-size:14pt}hr{border:none;border-top:solid
    1px var(--bg1);margin-top:1.2em;margin-bottom:1.2em}kbd{color:color-mix(in
    srgb,currentcolor 30%,transparent);white-space:nowrap;border:1px
    solid;border-radius:.3em;padding:.2em .3em;line-height:1}footer{color:var(--text-dim);text-align:center}.link{color:var(--accent);text-decoration:underline}
  </style>
  <style>
    #graph{-webkit-user-select:none;-ms-user-select:none;user-select:none;--warning0:#f6f6e0;--warning1:#d9d9d9;--stub:red;-ms-flex-positive:1;flex-grow:1;position:relative;overflow:auto}#graph.centered{-ms-flex-pack:center;justify-content:center;-ms-flex-align:center;align-items:center;display:-ms-flexbox;display:flex}#graph.graphviz-loading,#graph.graphviz-failed{text-align:center;margin-top:20vh}#graph.graphviz-failed{color:var(--stroke-red)}@media (max-aspect-ratio:2/3),(max-width:700px){#graph{min-height:80vh}}@media (prefers-color-scheme:dark){#graph{--warning0:#101010;--warning1:#660}}#graph-controls{--padding:6px;gap:1em;display:-ms-flexbox;display:flex;position:fixed;top:auto;bottom:1em;left:1em;right:auto}@media (max-aspect-ratio:2/3),(max-width:700px){#graph-controls{top:1em;bottom:auto;left:auto;right:1em}}#graph-controls
    button{border:solid 1px
    var(--bg1);background:var(--bg0);padding:var(--padding);color:var(--text);display:inline-block}#graph-controls
    button svg{display:block}#graph-controls
    button.selected{background-color:var(--accent);color:var(--text-on-accent)}#zoom-buttons{display:-ms-flexbox;display:flex}#zoom-fit-width,#download-svg{border-top-left-radius:var(--rad_sm);border-bottom-left-radius:var(--rad_sm);padding-left:calc(var(--padding) + 1px)}#zoom-fit-height,#download-svg{border-top-right-radius:var(--rad_sm);border-bottom-right-radius:var(--rad_sm);padding-right:calc(var(--padding) + 1px)}#zoom-buttons,#download-svg{box-shadow:2px
    2px 6px
    var(--bg0-shadow-color)}svg#graph-diagram{fill:var(--text)}pattern#warning .line0{stroke:var(--warning0)}pattern#warning .line1{stroke:var(--warning1)}g .stub{opacity:.6}g .stub>path{stroke-dasharray:4
    4;stroke:var(--stub)}g.node text{fill:var(--text)}g.node
    path{stroke:var(--text);fill:var(--bg0)}g.node.collapsed{opacity:.5}g.node.selected
    path{stroke-width:3px;stroke:var(--accent)!important}g.node.downstream
    path{stroke:var(--accent)}g.node.unselected{opacity:.35}g.node.warning>path{fill:url(#warning)}g.node *{cursor:pointer}g.edge{--selected-edge-width:1}g.edge>path{stroke:var(--text)}g.edge>polygon{stroke:var(--text);fill:var(--text)}g.edge.downstream>path{stroke:var(--accent);stroke-width:var(--selected-edge-width)}g.edge.downstream>polygon{stroke:var(--accent);fill:var(--accent)}g.edge.unselected{opacity:.35}@media
    print{#graph-controls{display:none}}
  </style>
</svg>
